<svg xmlns="http://www.w3.org/2000/svg" viewBox="0 0 48 48"><defs><style>.cls-1{fill:#201602;}</style></defs><title>Asset 49ldpi</title><g id="Layer_2" data-name="Layer 2"><g id="layer_1-2" data-name="layer 1"><path class="cls-1" d="M11,12H1a1,1,0,0,1-1-1V1A1,1,0,0,1,1,0H11a1,1,0,0,1,1,1V11A1,1,0,0,1,11,12ZM2,10h8V2H2Z"/><rect class="cls-1" x="5" y="5" width="2" height="2"/><rect class="cls-1" x="15" y="3" width="2" height="5"/><path class="cls-1" d="M11,48H1a1,1,0,0,1-1-1V37a1,1,0,0,1,1-1H11a1,1,0,0,1,1,1V47A1,1,0,0,1,11,48ZM2,46h8V38H2Z"/><rect class="cls-1" x="5" y="41" width="2" height="2"/><path class="cls-1" d="M47,12H37a1,1,0,0,1-1-1V1a1,1,0,0,1,1-1H47a1,1,0,0,1,1,1V11A1,1,0,0,1,47,12Zm-9-2h8V2H38Z"/><rect class="cls-1" x="41" y="5" width="2" height="2"/><path class="cls-1" d="M29,12H25V10h3V0h2V11A1,1,0,0,1,29,12Z"/><path class="cls-1" d="M16,17H10V15h5V11a1,1,0,0,1,1-1h4V0h2V11a1,1,0,0,1-1,1H17v4A1,1,0,0,1,16,17Z"/><path class="cls-1" d="M2,32H0V26a1,1,0,0,1,1-1H6v2H2Z"/><path class="cls-1" d="M14,27H8V25h5V20h2v6A1,1,0,0,1,14,27Z"/><rect class="cls-1" x="36" y="15" width="12" height="2"/><path class="cls-1" d="M21,25H19V21a1,1,0,0,1,1-1h6V17H20V15h7a1,1,0,0,1,1,1v5a1,1,0,0,1-1,1H21Z"/><path class="cls-1" d="M20,32H6V30H19V27h2v4A1,1,0,0,1,20,32Z"/><rect class="cls-1" y="20" width="10" height="2"/><rect class="cls-1" y="15" width="7" height="2"/><path class="cls-1" d="M39,22H32a1,1,0,0,1-1-1V15h2v5h6Z"/><rect class="cls-1" x="41" y="20" width="7" height="2"/><path class="cls-1" d="M48,43H42a1,1,0,0,1-1-1V32H39V30h3a1,1,0,0,1,1,1V41h5Z"/><path class="cls-1" d="M30,48H22V46h7V30h2V47A1,1,0,0,1,30,48Z"/><path class="cls-1" d="M18,48H16V42a1,1,0,0,1,1-1h7V38h2v4a1,1,0,0,1-1,1H18Z"/><rect class="cls-1" x="24" y="25" width="2" height="11"/><path class="cls-1" d="M36,30H34V27H29V25h6a1,1,0,0,1,1,1Z"/><rect class="cls-1" x="34" y="32" width="2" height="11"/><path class="cls-1" d="M48,36H46V27H39V25h8a1,1,0,0,1,1,1Z"/><rect class="cls-1" x="15" y="36" width="6" height="2"/><rect class="cls-1" x="34" y="46" width="14" height="2"/></g></g></svg>